<?xml version="1.0" encoding="iso-8859-1"?>
<!-- Uploaded to: SVG Repo, www.svgrepo.com, Generator: SVG Repo Mixer Tools -->
<svg height="300px" width="300px" version="1.1" id="Layer_1" xmlns="http://www.w3.org/2000/svg" xmlns:xlink="http://www.w3.org/1999/xlink" 
	 viewBox="0 0 512 512" xml:space="preserve">
<g transform="translate(1)">
	<g>
		<polygon style="fill:#556080;" points="7.533,503.467 502.467,503.467 502.467,8.533 7.533,8.533 		"/>
		<polygon style="fill:#556080;" points="50.2,460.8 459.8,460.8 459.8,324.267 50.2,324.267 		"/>
	</g>
	<path style="fill:#25B99A;" d="M468.333,469.333H41.667v-153.6h426.667V469.333z M58.733,452.267h392.533V332.8H58.733V452.267z"/>
	<polygon style="fill:#556080;" points="50.2,324.267 459.8,324.267 459.8,187.733 50.2,187.733 	"/>
	<path style="fill:#25B99A;" d="M468.333,332.8H41.667V179.2h426.667V332.8z M58.733,315.733h392.533V196.267H58.733V315.733z"/>
	<polygon style="fill:#556080;" points="50.2,187.733 459.8,187.733 459.8,51.2 50.2,51.2 	"/>
	<path style="fill:#25B99A;" d="M468.333,196.267H41.667v-153.6h426.667V196.267z M58.733,179.2h392.533V59.733H58.733V179.2z"/>
	<path d="M468.333,469.333H41.667v-153.6h426.667V469.333z M58.733,452.267h392.533V332.8H58.733V452.267z"/>
	<path d="M468.333,332.8H41.667V179.2h426.667V332.8z M58.733,315.733h392.533V196.267H58.733V315.733z"/>
	<path d="M468.333,196.267H41.667v-153.6h426.667V196.267z M58.733,179.2h392.533V59.733H58.733V179.2z"/>
	<path d="M511,512H-1V0h512V512z M16.067,494.933h477.867V17.067H16.067V494.933z"/>
</g>
</svg>